<?xml version="1.0" encoding="utf-8"?>
<svg id="master-artboard" viewBox="0 0 2155 1510" version="1.1" xmlns="http://www.w3.org/2000/svg" x="0px" y="0px" style="enable-background:new 0 0 1400 980;" width="2155px" height="1510px"><rect id="ee-background" x="0" y="0" width="2155" height="1510" style="fill: white; fill-opacity: 0; pointer-events: none;"/>


<path d="M 939.900024 495.200012 H 1400.000031 V 980 H 939.900024 V 495.200012 Z" class="st1" style="fill: rgb(119, 90, 66);" transform="matrix(1.5558388233184814, 0, 0, 1.5558388233184814, -14.114959716796875, -10)"/>
<path d="M 1400.0999755859375 762.2000122070312 L 1264.699951171875 626.4000244140625 L 1098.5999755859375 881.2999877929688 L 1197.300048828125 980 L 1400.0999755859375 980 Z" class="st2" style="fill: rgb(104, 77, 58);" transform="matrix(1.5558388233184814, 0, 0, 1.5558388233184814, -14.114959716796875, -10)"/>
<path d="M 1239.300048828125 881.2999877929688 L 1098.5999755859375 881.2999877929688 L 1083.5 646.7999877929688 L 1254.4000244140625 646.7999877929688 Z" class="st3" style="fill: rgb(232, 185, 135);" transform="matrix(1.5558388233184814, 0, 0, 1.5558388233184814, -14.114959716796875, -10)"/>
<path d="M 1168.9000244140625 881.2999877929688 L 1239.300048828125 881.2999877929688 L 1254.4000244140625 646.7999877929688 L 1168.9000244140625 646.7999877929688 Z" class="st4" style="fill: rgb(214, 160, 104);" transform="matrix(1.5558388233184814, 0, 0, 1.5558388233184814, -14.114959716796875, -10)"/>
<path d="M 1243.199951171875 811.7000122070312 L 1250.5999755859375 697.0999755859375 L 1087.300048828125 697.0999755859375 L 1094.699951171875 811.7000122070312 Z" class="st5" style="fill: rgb(255, 255, 255);" transform="matrix(1.5558388233184814, 0, 0, 1.5558388233184814, -14.114959716796875, -10)"/>
<path d="M 1168.9000244140625 811.7000122070312 L 1243.199951171875 811.7000122070312 L 1250.5999755859375 697.0999755859375 L 1168.9000244140625 697.0999755859375 Z" class="st0" style="fill: rgb(219, 219, 219);" transform="matrix(1.5558388233184814, 0, 0, 1.5558388233184814, -14.114959716796875, -10)"/>
<path d="M 469.899994 495.200012 H 930 V 980 H 469.899994 V 495.200012 Z" class="st1" style="fill: rgb(119, 90, 66);" transform="matrix(1.5558388233184814, 0, 0, 1.5558388233184814, -14.114959716796875, -10)"/>

<path d="M 941.200012 0 H 1400 V 485.100006 H 941.200012 V 0 Z" class="st1" style="fill: rgb(119, 90, 66);" transform="matrix(1.5558388233184814, 0, 0, 1.5558388233184814, -14.114959716796875, -10)"/>
<path d="M 471.100006 0 H 931.200012 V 485.200012 H 471.100006 V 0 Z" class="st1" style="fill: rgb(119, 90, 66);" transform="matrix(1.5558388233184814, 0, 0, 1.5558388233184814, -14.114959716796875, -10)"/>
<g transform="matrix(1, 0, 0, 1, 0, -377.840777547412)"><path d="M 0.1 0 H 461.200006 V 485.600006 H 0.1 V 0 Z" class="st1" style="fill: rgb(119, 90, 66);" transform="matrix(1.5558388465022865, 0, 0, 1.5558388465022865, -2.7513275556464123, 376.3635004813)"/><path d="M 461.1000061035156 267.79998779296875 L 325.79998779296875 132 L 159.6999969482422 386.8999938964844 L 258.29998779296875 485.6000061035156 L 461.1000061035156 485.6000061035156 Z" class="st2" style="fill: rgb(104, 77, 58);" transform="matrix(1.5558388465022865, 0, 0, 1.5558388465022865, -2.7513275556464123, 376.3635004813)"/><g transform="matrix(1.5558388465022865, 0, 0, 1.5558388465022865, -2.7513275556464123, 376.3635004813)">
	<path d="M 300.3999938964844 386.8999938964844 L 159.6999969482422 386.8999938964844 L 144.5 152.39999389648438 L 315.5 152.39999389648438 Z" class="st5" style="fill: rgb(255, 255, 255);"/>
	<path d="M 301.6000061035156 367.20001220703125 L 314.20001220703125 172 L 145.8000030517578 172 L 158.39999389648438 367.20001220703125 Z" class="st3" style="fill: rgb(232, 185, 135);"/>
	<path d="M 230 386.8999938964844 L 300.3999938964844 386.8999938964844 L 315.5 152.39999389648438 L 230 152.39999389648438 Z" class="st0" style="fill: rgb(219, 219, 219);"/>
	<path d="M 230 367.20001220703125 L 301.6000061035156 367.20001220703125 L 314.20001220703125 172 L 230 172 Z" class="st4" style="fill: rgb(214, 160, 104);"/>
	<path d="M 295.5 132 L 164.5 132 L 168.8000030517578 111.5999984741211 L 291.20001220703125 111.5999984741211 Z" class="st5" style="fill: rgb(255, 255, 255);"/>
	<path d="M 134.199997 132 H 325.699997 V 152.4 H 134.199997 V 132 Z" class="st0" style="fill: rgb(219, 219, 219);"/>
	
		<path d="M 283.900005 256 A 20.799999 29.200001 0 0 1 263.100006 285.200001 A 20.799999 29.200001 0 0 1 242.300007 256 A 20.799999 29.200001 0 0 1 263.100006 226.799999 A 20.799999 29.200001 0 0 1 283.900005 256 Z" transform="matrix(0.7071 0.7071 -0.7071 0.7071 258.1179 -111.0552)" class="st8" style="fill: rgb(143, 92, 41);"/>
	<path class="st1" d="M240.3,273.9c0.6,1,1.3,1.9,2.2,2.8c0.8,0.8,1.8,1.6,2.8,2.2l40.6-40.6c-0.6-1-1.3-1.9-2.2-2.8&#10;&#9;&#9;c-0.8-0.8-1.8-1.6-2.8-2.2L240.3,273.9z" style="fill: rgb(119, 90, 66);"/>
	
		<path d="M 217.699993 282.399994 A 20.799999 29.200001 0 0 1 196.899994 311.599995 A 20.799999 29.200001 0 0 1 176.099995 282.399994 A 20.799999 29.200001 0 0 1 196.899994 253.199993 A 20.799999 29.200001 0 0 1 217.699993 282.399994 Z" transform="matrix(0.7071 -0.7071 0.7071 0.7071 -142.0099 221.9292)" class="st9" style="fill: rgb(177, 109, 41);"/>
	<path class="st8" d="M214.7,305.2c1-0.6,1.9-1.3,2.8-2.2c0.8-0.8,1.6-1.8,2.2-2.8L179,259.6c-1,0.6-1.9,1.3-2.8,2.2&#10;&#9;&#9;c-0.8,0.8-1.6,1.8-2.2,2.8L214.7,305.2z" style="fill: rgb(143, 92, 41);"/>
	<path d="M 263.099998 269.600006 A 33.099998 46.400002 0 0 1 230 316.000008 A 33.099998 46.400002 0 0 1 196.900002 269.600006 A 33.099998 46.400002 0 0 1 230 223.200005 A 33.099998 46.400002 0 0 1 263.099998 269.600006 Z" class="st8" style="fill: rgb(143, 92, 41);"/>
	<path class="st1" d="M224.4,315.4c1.8,0.4,3.7,0.7,5.6,0.7c1.9,0,3.8-0.2,5.6-0.7v-91.5c-1.8-0.4-3.7-0.7-5.6-0.7&#10;&#9;&#9;c-1.9,0-3.8,0.2-5.6,0.7V315.4z" style="fill: rgb(119, 90, 66);"/>
	<path d="M 291.20001220703125 111.5999984741211 L 230 111.5999984741211 L 230 132 L 295.5 132 Z" class="st0" style="fill: rgb(219, 219, 219);"/>
	<path d="M 230 132 H 325.800003 V 152.4 H 230 V 132 Z" class="st10" style="fill: rgb(182, 183, 184);"/>
	<path class="st1" d="M230,223.2L230,223.2v92.9l0,0c18.3,0,33.1-20.8,33.1-46.4S248.3,223.2,230,223.2z" style="fill: rgb(119, 90, 66);"/>
	<path class="st11" d="M230,223.2v92.9l0,0c1.9,0,3.8-0.2,5.6-0.7v-91.5C233.8,223.4,231.9,223.2,230,223.2L230,223.2z" style="fill: rgb(92, 66, 42);"/>
</g></g>


<path d="M 930.0999755859375 762.2000122070312 L 794.7000122070312 626.4000244140625 L 628.5999755859375 881.2999877929688 L 727.2999877929688 980 L 930.0999755859375 980 Z" class="st2" style="fill: rgb(104, 77, 58);" transform="matrix(1.5558388233184814, 0, 0, 1.5558388233184814, -14.114959716796875, -10)"/>
<path d="M 931.0999755859375 267.5 L 795.7999877929688 131.6999969482422 L 629.5999755859375 386.6000061035156 L 728.2999877929688 485.29998779296875 L 931.0999755859375 485.29998779296875 Z" class="st2" style="fill: rgb(104, 77, 58);" transform="matrix(1.5558388233184814, 0, 0, 1.5558388233184814, -14.114959716796875, -10)"/>
<path d="M 1400 267.3999938964844 L 1264.699951171875 131.5 L 1098.5999755859375 386.3999938964844 L 1197.199951171875 485.1000061035156 L 1400 485.1000061035156 Z" class="st2" style="fill: rgb(104, 77, 58);" transform="matrix(1.5558388233184814, 0, 0, 1.5558388233184814, -14.114959716796875, -10)"/>
<path d="M 1234.5 626.4000244140625 L 1227.199951171875 606 L 1110.699951171875 606 L 1103.4000244140625 626.4000244140625 L 1073.199951171875 626.4000244140625 L 1073.199951171875 646.7999877929688 L 1264.699951171875 646.7999877929688 L 1264.699951171875 626.4000244140625 Z" class="st6" style="fill: rgb(86, 87, 89);" transform="matrix(1.5558388233184814, 0, 0, 1.5558388233184814, -14.114959716796875, -10)"/>
<path d="M 1227.199951171875 606 L 1168.9000244140625 606 L 1168.9000244140625 646.7999877929688 L 1264.699951171875 646.7999877929688 L 1264.699951171875 626.4000244140625 L 1234.5 626.4000244140625 Z" class="st7" style="fill: rgb(64, 64, 65);" transform="matrix(1.5558388233184814, 0, 0, 1.5558388233184814, -14.114959716796875, -10)"/>
<g transform="matrix(1.5558388233184814, 0, 0, 1.5558388233184814, -14.114959716796875, -10)">
	
		<path d="M 1204.199951 752.299988 A 23.5 33 0 0 1 1180.699951 785.299988 A 23.5 33 0 0 1 1157.199951 752.299988 A 23.5 33 0 0 1 1180.699951 719.299988 A 23.5 33 0 0 1 1204.199951 752.299988 Z" transform="matrix(0.7071 0.7071 -0.7071 0.7071 877.7919 -614.54)" class="st8" style="fill: rgb(143, 92, 41);"/>
	<path class="st1" d="M1154.9,772.5c0.7,1.1,1.5,2.2,2.5,3.1c1,1,2,1.8,3.1,2.5l46-46c-0.7-1.1-1.5-2.2-2.5-3.1c-1-1-2-1.8-3.1-2.5&#10;&#9;&#9;L1154.9,772.5z" style="fill: rgb(119, 90, 66);"/>
	<path d="M 1175.599976 758.400024 A 23.5 33 0 0 1 1152.099976 791.400024 A 23.5 33 0 0 1 1128.599976 758.400024 A 23.5 33 0 0 1 1152.099976 725.400024 A 23.5 33 0 0 1 1175.599976 758.400024 Z" class="st9" style="fill: rgb(177, 109, 41);"/>
	<path class="st8" d="M1148.1,790.9c1.3,0.3,2.6,0.5,4,0.5c1.4,0,2.7-0.2,4-0.5v-65c-1.3-0.3-2.6-0.5-4-0.5c-1.4,0-2.7,0.2-4,0.5&#10;&#9;&#9;V790.9z" style="fill: rgb(143, 92, 41);"/>
</g>


<g transform="matrix(1.5558388233184814, 0, 0, 1.5558388233184814, -14.114959716796875, -10)">
	<path d="M 765.5 131.6999969482422 L 758.2999877929688 111.30000305175781 L 641.7000122070312 111.30000305175781 L 634.5 131.6999969482422 L 604.2000122070312 131.6999969482422 L 604.2000122070312 152.10000610351562 L 795.7999877929688 152.10000610351562 L 795.7999877929688 131.6999969482422 Z" class="st6" style="fill: rgb(86, 87, 89);"/>
	<path d="M 758.2999877929688 111.30000305175781 L 700 111.30000305175781 L 700 152.10000610351562 L 795.7999877929688 152.10000610351562 L 795.7999877929688 131.6999969482422 L 765.5 131.6999969482422 Z" class="st7" style="fill: rgb(64, 64, 65);"/>
	<path d="M 770.4000244140625 386.6000061035156 L 629.5999755859375 386.6000061035156 L 614.5 152.10000610351562 L 785.5 152.10000610351562 Z" class="st5" style="fill: rgb(255, 255, 255);"/>
	<path d="M 773.7999877929688 333.20001220703125 L 783.2999877929688 186.3000030517578 L 616.7000122070312 186.3000030517578 L 626.2000122070312 333.20001220703125 Z" class="st3" style="fill: rgb(232, 185, 135);"/>
	<path d="M 700 386.6000061035156 L 770.4000244140625 386.6000061035156 L 785.5 152.10000610351562 L 700 152.10000610351562 Z" class="st0" style="fill: rgb(219, 219, 219);"/>
	<path d="M 700 333.20001220703125 L 773.7999877929688 333.20001220703125 L 783.2999877929688 186.3000030517578 L 700 186.3000030517578 Z" class="st4" style="fill: rgb(214, 160, 104);"/>
</g>
<g transform="matrix(1.5558388233184814, 0, 0, 1.5558388233184814, -14.114959716796875, -10)">
	<path d="M 633.400024 606 H 764.500031 V 626.4 H 633.400024 V 606 Z" class="st6" style="fill: rgb(86, 87, 89);"/>
	<path d="M 603.099976 626.400024 H 794.599976 V 646.800024 H 603.099976 V 626.400024 Z" class="st7" style="fill: rgb(64, 64, 65);"/>
	<path d="M 769.2999877929688 881.2999877929688 L 628.5999755859375 881.2999877929688 L 613.4000244140625 646.7999877929688 L 784.4000244140625 646.7999877929688 Z" class="st14" style="fill: rgb(0, 104, 55);"/>
	<path d="M 773.0999755859375 821.2999877929688 L 780.5 706.7000122070312 L 617.2999877929688 706.7000122070312 L 624.7000122070312 821.2999877929688 Z" class="st5" style="fill: rgb(255, 255, 255);"/>
	<path d="M 698.900024 606 H 764.400024 V 626.4 H 698.900024 V 606 Z" class="st7" style="fill: rgb(64, 64, 65);"/>
	<path d="M 698.900024 626.400024 H 794.700027 V 646.800024 H 698.900024 V 626.400024 Z" class="st13" style="fill: rgb(41, 40, 42);"/>
	<path d="M 698.9000244140625 881.2999877929688 L 769.2999877929688 881.2999877929688 L 784.4000244140625 646.7999877929688 L 698.9000244140625 646.7999877929688 Z" class="st15" style="fill: rgb(0, 78, 41);"/>
	<path d="M 698.9000244140625 821.2999877929688 L 773.0999755859375 821.2999877929688 L 780.5 706.7000122070312 L 698.9000244140625 706.7000122070312 Z" class="st0" style="fill: rgb(219, 219, 219);"/>
</g>
<g transform="matrix(1.5558388233184814, 0, 0, 1.5558388233184814, -14.114959716796875, -10)">
	<path d="M 1239.300048828125 386.3999938964844 L 1098.5999755859375 386.3999938964844 L 1083.5 151.89999389648438 L 1254.5 151.89999389648438 Z" class="st5" style="fill: rgb(255, 255, 255);"/>
	<path d="M 1243.199951171875 326.3999938964844 L 1250.5999755859375 211.8000030517578 L 1087.4000244140625 211.8000030517578 L 1094.800048828125 326.3999938964844 Z" class="st3" style="fill: rgb(232, 185, 135);"/>
	<path d="M 1234.5 131.5 L 1103.4000244140625 131.5 L 1107.800048828125 111.0999984741211 L 1230.0999755859375 111.0999984741211 Z" class="st5" style="fill: rgb(255, 255, 255);"/>
	<path d="M 1073.199951 131.5 H 1264.699951 V 151.9 H 1073.199951 V 131.5 Z" class="st0" style="fill: rgb(219, 219, 219);"/>
	<path d="M 1169 131.5 L 1234.5 131.5 L 1230.0999755859375 111.0999984741211 L 1169 111.0999984741211 Z" class="st0" style="fill: rgb(219, 219, 219);"/>
	<path d="M 1169 131.5 H 1264.800003 V 151.9 H 1169 V 131.5 Z" class="st10" style="fill: rgb(182, 183, 184);"/>
	<path d="M 1169 386.3999938964844 L 1239.300048828125 386.3999938964844 L 1254.5 151.89999389648438 L 1169 151.89999389648438 Z" class="st0" style="fill: rgb(219, 219, 219);"/>
	<path d="M 1169 326.3999938964844 L 1243.199951171875 326.3999938964844 L 1250.5999755859375 211.8000030517578 L 1169 211.8000030517578 Z" class="st4" style="fill: rgb(214, 160, 104);"/>
	<path class="st14" d="M1219.1,306.5c2.6-6.3,4-13.3,4-20.5c0-29.9-24.2-54.1-54.1-54.1c-29.9,0-54.1,24.2-54.1,54.1&#10;&#9;&#9;c0,7.3,1.4,14.2,4,20.5H1219.1z" style="fill: rgb(0, 104, 55);"/>
	<path class="st15" d="M1219.1,306.5c2.6-6.3,4-13.3,4-20.5c0-29.9-24.2-54.1-54.1-54.1v74.7H1219.1z" style="fill: rgb(0, 78, 41);"/>
</g>
</svg>