<svg width='200' height='200' fill="#000000" xmlns="http://www.w3.org/2000/svg" viewBox="0 0 24 24" x="0px" y="0px"><title>Iconsset_Lineicons_coffee</title><path d="M15.72,6.08A.5.5,0,0,0,15.5,6H14v-.5A.5.5,0,0,0,13.59,5L7.59,4a.5.5,0,0,0-.51.76C8,6.14,8.3,7.27,8.12,8H7.55a.5.5,0,0,0-.27.08A7,7,0,0,0,7.28,20a.5.5,0,0,0,.27.08h6.91a.5.5,0,0,0,.27-.08,7,7,0,0,0,0-11.85A.5.5,0,0,0,14.45,8H14V7h1.37A7.48,7.48,0,0,1,19,13.53a.5.5,0,0,0,1,0A8.38,8.38,0,0,0,15.72,6.08Zm1.09,6.45H5.19A6,6,0,0,1,7.69,9h6.61A6,6,0,0,1,16.81,12.53ZM13,6V8L9.15,8a3.35,3.35,0,0,0,0-.95H11.5a.5.5,0,0,0,0-1H8.85a8.33,8.33,0,0,0-.39-.88Z"/></svg>