<svg width='200' height='200' fill="#000000" xmlns="http://www.w3.org/2000/svg" viewBox="0 0 24 24" x="0px" y="0px"><title>Iconsset_Lineicons_coffee</title><path d="M18.85,5.65a.5.5,0,0,0-.35-.15H15.58L13,4.64V3.5A.5.5,0,0,0,12.66,3l-1.5-.5a.5.5,0,0,0-.32,0L9.34,3A.5.5,0,0,0,9,3.5V4.64l-2.66.89-3,1a.5.5,0,0,0-.07.92l.88.44,2.18,3.38,0,0L6.5,13a.5.5,0,0,0,.5.46v1a.5.5,0,0,0-.48.38l-1.5,6a.5.5,0,0,0,.48.62h11a.5.5,0,0,0,.48-.62l-1.5-6A.5.5,0,0,0,15,14.5v-1a.5.5,0,0,0,.5-.46l.26-3.62.1-.06A2.93,2.93,0,0,1,17.5,8.5a2.12,2.12,0,0,1,.39,0,2.79,2.79,0,0,1-.74,1.11A.5.5,0,0,0,17,10v1.79l-.85.85a.5.5,0,0,0,0,.71l1,1a.5.5,0,0,0,.35.15h1a.5.5,0,0,0,.47-.34l2-6a.5.5,0,0,0-.12-.51ZM14.53,12.5H13l.43-6H15ZM10,12.5l-.43-6h2.93l-.43,6Zm2.45-7H9.58L11,5Zm-5,7L7,6.5h1.5l.43,6H7.47ZM10,3.86l1-.33,1,.33v.45L11.16,4a.5.5,0,0,0-.32,0L10,4.31ZM4.92,7.23a.49.49,0,0,0-.13-.13L6,6.68l.19,2.59ZM7.39,15.5H9l-.42,5H6.14Zm4.65,0,.42,5H9.54l.42-5Zm3.82,5h-2.4l-.42-5h1.57ZM14,14.5H8v-1h6Zm4.14-1h-.43l-.5-.5.65-.65A.5.5,0,0,0,18,12V10.2c.39-.43,1.11-1.34.82-2.05-.18-.43-.62-.65-1.32-.65a3.09,3.09,0,0,0-1.65.58L16,6.5h2.33l1.63,1.64Z"/></svg>