<svg width='200' height='200' fill="#000000" xmlns="http://www.w3.org/2000/svg" xmlns:xlink="http://www.w3.org/1999/xlink" version="1.1" x="0px" y="0px" viewBox="0 0 100 100" style="enable-background:new 0 0 100 100;" xml:space="preserve"><g><path d="M89.2,28.5c0-5.7-5.1-10.7-13.4-14.1v-3.3c0-1.1-0.9-2-2-2H26.2c-1.1,0-2,0.9-2,2v3.3c-8.2,3.4-13.4,8.4-13.4,14.1   c0,6.2,6.1,11.6,15.7,15l5.4,34.8H21.4c-5.9,0-10.6,4.8-10.6,10.6c0,1.1,0.9,2,2,2h74.4c1.1,0,2-0.9,2-2c0-5.9-4.8-10.6-10.6-10.6   H68.1l2.9-19h8.1c1.9,0,3.5-1.6,3.5-3.5s-1.6-3.5-3.5-3.5h-7l1.4-8.8C83.1,40.2,89.2,34.8,89.2,28.5z M84.9,86.9H15.1   c0.9-2.7,3.4-4.6,6.3-4.6h12.8h31.6h12.8C81.5,82.3,84,84.2,84.9,86.9z M14.8,28.5c0-7.1,14.1-14.6,35.2-14.6s35.2,7.6,35.2,14.6   S71,43.2,50,43.2S14.8,35.6,14.8,28.5z M59.7,68.5c-0.3,1.1-0.9,2.1-1.8,2.6l0.5-2.6H59.7z M52.9,76.2h-5.1l-1.3-7.7h7.3h0.5   L52.9,76.2z M43.5,57.1v-2.4h13v2.4H43.5z M58.6,50.7H41.4v-3.9c2.8,0.3,5.7,0.4,8.6,0.4s5.9-0.2,8.6-0.4V50.7z M37.4,46.2v6.5   c0,1.1,0.9,2,2,2h0.1v4.4c0,1.1,0.9,2,2,2H48v3.5h-3.9c-0.6,0-1.1,0.3-1.5,0.7c-0.4,0.5-0.5,1-0.4,1.6l2,11.4h-8.2l-5.2-33.5   C32.8,45.4,35.1,45.8,37.4,46.2z M56.6,78.3l0.5-2.7c4.1-0.6,6.9-4.2,6.9-9.1c0-1.1-0.9-2-2-2h-5.3H52v-3.5h6.5c1.1,0,2-0.9,2-2   v-1.3h3.7c0.6,0.9,1.7,1.5,2.8,1.5l-2.9,19H56.6z M67.1,52.3c-1.2,0-2.2,0.6-2.9,1.5h-1.9c0.2-0.3,0.3-0.7,0.3-1.1v-6.5   c2.3-0.4,4.5-0.8,6.6-1.4l-1.2,7.5H67.1z"/><path d="M39.4,28.5c0,5.8,4.8,10.6,10.6,10.6c5.8,0,10.6-4.8,10.6-10.6S55.8,17.9,50,17.9C44.2,17.9,39.4,22.7,39.4,28.5z M50,21.9   c3.6,0,6.6,3,6.6,6.6s-3,6.6-6.6,6.6s-6.6-3-6.6-6.6S46.4,21.9,50,21.9z"/><circle cx="67.5" cy="28.5" r="3.4"/><circle cx="76.5" cy="28.5" r="3.4"/></g></svg>