<svg width='200' height='200' fill="#000000" xmlns="http://www.w3.org/2000/svg" viewBox="0 0 24 24" x="0px" y="0px"><title>Iconsset_Lineicons_coffee</title><path d="M18,9.73H16.5V8.23h0v-1A1.5,1.5,0,0,0,15,5.73H12v-1a.49.49,0,0,0,0-.13,1,1,0,0,0,.53-.87,1,1,0,1,0-2,0,1,1,0,0,0,.53.87.49.49,0,0,0,0,.13v1H8a1.5,1.5,0,0,0-1.5,1.5v.5H5a.5.5,0,0,0-.5.5,2.5,2.5,0,0,0,2,2.45v9.55A1.5,1.5,0,0,0,8,21.73h7a1.5,1.5,0,0,0,1.5-1.5v-.5H18a1.5,1.5,0,0,0,1.5-1.5v-7A1.5,1.5,0,0,0,18,9.73Zm-2.5,0H12v-1h3.5Zm-.5-3a.5.5,0,0,1,.5.5v.5H12v-1Zm-7.5.5a.5.5,0,0,1,.5-.5h3v1H7.5ZM5.59,8.73H11v1H7A1.5,1.5,0,0,1,5.59,8.73Zm9.91,11.5a.5.5,0,0,1-.5.5H8a.5.5,0,0,1-.5-.5v-9.5H11V16.8c-1.5,0-3.5.13-3.5,1.43h8c0-1.3-2-1.42-3.5-1.43V10.73h3.5v9.5Zm3-2a.5.5,0,0,1-.5.5H16.5v-8H18a.5.5,0,0,1,.5.5Z"/></svg>