<svg width='200' height='200' fill="#000000" xmlns="http://www.w3.org/2000/svg" xmlns:xlink="http://www.w3.org/1999/xlink" version="1.1" x="0px" y="0px" viewBox="0 0 100 100" style="enable-background:new 0 0 100 100;" xml:space="preserve"><title>Thenoun-FB</title><path d="M73.4,23h-3.7v-8.8c0-0.8-0.7-1.5-1.5-1.5H24c-0.8,0-1.5,0.7-1.5,1.5V23h-3.6c-0.8,0-1.5,0.7-1.5,1.5v7.4  c0,0.8,0.7,1.5,1.5,1.5h4.2l3.4,52.9c0.1,0.8,0.7,1.4,1.5,1.4h36.2c0.8,0,1.4-0.6,1.5-1.4l0.7-11c0-0.2,0-0.4,0-0.6l2.7-41.4h4.2  c0.8,0,1.5-0.7,1.5-1.5l0,0v-7.4C74.9,23.7,74.2,23,73.4,23z M71.9,30.4H20.4V26h51.5V30.4z M66.8,15.7V23H25.5v-7.3H66.8z   M63.6,73.5H28.7L27,47h38.3L63.6,73.5z M29.4,84.7l-0.5-8.3h34.5l-0.5,8.3H29.4z M65.5,44H26.8l-0.7-10.6h40.1L65.5,44z"/><path d="M41.3,51.1l-0.2,0.2c-3.3,2.7-2.5,7.3-0.7,10.9c1.6,3.2,4.3,6.5,7.3,6.4c0.2-5.1-1.7-7.9-3.5-10.6  C42.8,56,41.5,54,41.3,51.1z"/><path d="M52.6,58.1c-1.4-4-5.5-8.9-9-7.8c0,2.8,1.3,4.7,2.7,6.8c1.8,2.7,3.9,5.7,3.7,11.1l0.4-0.1C53.9,66.7,54.1,62.5,52.6,58.1z"/></svg>