<svg width='200' height='200' fill="#000000" xmlns="http://www.w3.org/2000/svg" xmlns:xlink="http://www.w3.org/1999/xlink" version="1.1" x="0px" y="0px" viewBox="0 0 100 100" style="enable-background:new 0 0 100 100;" xml:space="preserve"><title>Thenoun-FB</title><path d="M78.3,32.1h-5c-3.1-9.7-11.8-16.4-21.9-17V5.9c0-0.6-0.4-1.2-1-1.4L38.7,0.3c-0.8-0.3-1.6,0.1-1.9,0.9s0.1,1.6,0.9,1.9  L48.3,7v8.2c-10,0.7-18.6,7.4-21.7,16.9h-5c-0.8,0-1.5,0.7-1.5,1.5v7.7c0,0.8,0.7,1.5,1.5,1.5h4.4l3.6,55c0.1,0.8,0.7,1.4,1.5,1.4  h37.6c0.8,0,1.4-0.6,1.5-1.4l3.6-55h4.4c0.8,0,1.5-0.7,1.5-1.5v-7.7C79.8,32.8,79.1,32.1,78.3,32.1z M76.8,39.8H23.1v-4.7h53.6V39.8  z M70.1,32.1H51.3v-14C59.8,18.7,67.1,24.1,70.1,32.1L70.1,32.1z M48.3,18.2v13.9H29.8C32.7,24.2,39.9,18.8,48.3,18.2z M68.2,83.9  H31.7L30,57.4h39.9L68.2,83.9z M32.5,96.3l-0.6-9.4H68l-0.6,9.4H32.5z M70.1,54.4H29.8l-0.8-11.5h41.8L70.1,54.4z"/><path d="M44.3,73.6c1.6,3.2,4.3,6.5,7.3,6.4c0.2-5.2-1.7-7.9-3.5-10.6c-1.4-2.1-2.8-4.1-2.9-6.9L45,62.7  C41.7,65.3,42.5,70,44.3,73.6z"/><path d="M53.8,79.7l0.4-0.1c3.5-1.4,3.7-5.6,2.2-10c-1.4-4-5.5-8.9-9-7.8c0,2.8,1.3,4.7,2.7,6.8C52,71.3,54,74.3,53.8,79.7z"/></svg>