<svg width='200' height='200' fill="#000000" xmlns="http://www.w3.org/2000/svg" viewBox="0 0 24 24" x="0px" y="0px"><title>Iconsset_Lineicons_coffee</title><path d="M18.65,9.45a2.08,2.08,0,0,0-1.89-.1l-.27.07V7a.5.5,0,0,0-.5-.5H7a.5.5,0,0,0-.5.5V18a.5.5,0,0,0,.5.5h9a.5.5,0,0,0,.5-.5V15.58l.27.07a4,4,0,0,0,1,.18,1.39,1.39,0,0,0,.88-.28c.58-.45.85-1.39.85-3S19.24,9.9,18.65,9.45Zm-3.15,8h-8V7.5h8ZM18,14.75c-.2.15-.6,0-1-.07l-.53-.13V10.44l.53-.13c.42-.11.82-.22,1-.07s.45.6.45,2.25S18.22,14.62,18,14.75Z"/><path d="M11.5,11.31a1.19,1.19,0,0,0-2,.86c0,1.43,2,2.29,2,2.29s2-.86,2-2.29A1.21,1.21,0,0,0,11.5,11.31Z"/></svg>