<svg height='200' width='200'  fill="#000000" xmlns="http://www.w3.org/2000/svg" xmlns:xlink="http://www.w3.org/1999/xlink" version="1.1" x="0px" y="0px" viewBox="0 0 100 100" enable-background="new 0 0 100 100" xml:space="preserve"><symbol viewBox="-3.187 -3.188 6.375 6.375"><path fill="#000000" d="M-3.187,0c0-1.76,1.427-3.188,3.188-3.188S3.188-1.761,3.188,0S1.76,3.187,0,3.187S-3.187,1.76-3.187,0z"></path><path fill="#000000" d="M-1.992,0.127c0-1.096,0.884-1.988,1.981-1.988c0.045,0,0.098,0,0.144,0.008V2.1   C0.087,2.107,0.034,2.107-0.011,2.107C-1.107,2.107-1.992,1.223-1.992,0.127z"></path></symbol><g display="none"><rect x="-981" y="-14" display="inline" fill="#000000" width="1201" height="360"></rect></g><g><path fill="none" d="M45.793,13.723c0.009,0.092,0.022,0.189,0.03,0.281c0.048-0.085,0.096-0.176,0.145-0.281H45.793z"></path><polygon fill="none" points="50.177,13.989 53.277,13.723 50.442,13.723 49.557,13.723 46.722,13.723 49.822,13.989  "></polygon><polygon fill="none" points="50.442,39.944 50.62,39.944 50.442,38.881  "></polygon><path fill="none" d="M54.182,14.003c0.007-0.092,0.021-0.188,0.029-0.28h-0.178C54.083,13.827,54.133,13.919,54.182,14.003z"></path><path d="M72.503,42.424v-1.506l-0.486-2.643c-1.486-5.633-6.049-10.917-13.563-15.711c-1.433-2.012-1.951-4.99-1.568-8.841H54.21   c-0.008,0.092-0.021,0.189-0.029,0.28c-0.353,4.41,0.408,7.894,2.288,10.36l0.145,0.19l0.203,0.129   c7.053,4.458,11.3,9.26,12.604,14.194l0.328,1.642v0.349l0.067,0.204l0.021,1.389c0.109,3.984-1.53,8.263-4.869,12.714   c-2.156,2.854-3.349,5.686-3.547,8.51v0.178c0,1.843,0.46,3.761,1.365,5.701l0.07,0.13c3.64,5.973,5.541,10.938,5.652,14.773   c0.154,3.8-1.309,6.588-4.471,8.518l-27.992,0.018l-0.088-0.018c-3.162-1.93-4.625-4.719-4.471-8.532   c0.099-3.385,1.605-7.678,4.479-12.761c0.367-0.652,0.76-1.318,1.173-1.998l0.07-0.13c0.905-1.94,1.365-3.858,1.365-5.701   l-0.004-0.273c-0.195-2.73-1.388-5.562-3.54-8.41c-3.342-4.455-4.981-8.733-4.871-12.754v-1.291l0.398-2.178   c1.321-5.012,5.568-9.813,12.622-14.272l0.203-0.129l0.146-0.19c1.892-2.484,2.655-5.968,2.292-10.359   c-0.008-0.092-0.021-0.188-0.03-0.281h-2.676c0.394,3.835-0.126,6.812-1.571,8.841c-7.516,4.795-12.078,10.08-13.581,15.789   l-0.354,1.771l-0.114,0.578l0.001,1.685c-0.126,4.6,1.691,9.441,5.406,14.394c1.84,2.435,2.854,4.789,3.008,6.902v0.178   c0,1.431-0.364,2.947-1.085,4.509c-0.415,0.684-0.809,1.354-1.179,2.01c-3.089,5.464-4.711,10.171-4.822,13.979   c-0.197,4.879,1.813,8.592,5.973,11.036l0.192,0.113l0.662,0.133l28.565,0.026l0.792-0.159l0.192-0.113   c4.16-2.444,6.17-6.157,5.973-11.021c-0.126-4.334-2.089-9.57-6.001-16.003c-0.72-1.562-1.085-3.078-1.085-4.509l-0.004-0.083   c0.157-2.207,1.171-4.562,3.015-7.001C70.811,51.829,72.628,46.987,72.503,42.424z"></path><polygon points="45.967,13.723 46.722,13.723 49.557,13.723 50.442,13.723 53.277,13.723 54.033,13.723 54.21,13.723    56.886,13.723 57.529,13.723 58.238,13.369 58.681,13.014 58.858,12.571 60.009,6.459 60.009,5.396 59.832,4.776 59.566,4.422    59.389,4.422 59.389,4.333 50.442,4.333 49.557,4.333 40.61,4.333 40.61,4.422 40.433,4.422 40.167,4.776 39.99,5.396 39.99,6.459    41.141,12.571 41.318,13.014 41.761,13.369 42.47,13.723 43.117,13.723 45.793,13.723  "></polygon><path d="M46.694,32.605c-0.326-1.238-1.063-1.865-2.187-1.865c-2.851,0-5.334,1.587-7.377,4.713   c-1.554,2.27-2.402,4.276-2.523,5.984l0.003,0.393l0.28,1.736c0.394,0.984,1.215,1.482,2.442,1.482h0.119l9.286-11.875l0.073-0.095   l-0.116-0.47L46.694,32.605z M37.214,44.556c-0.953-0.029-1.564-0.411-1.854-1.119l-0.263-1.646v-0.337   c0.114-1.603,0.935-3.528,2.44-5.729c1.95-2.982,4.295-4.495,6.97-4.495c0.886,0,1.445,0.49,1.712,1.498l0.059,0.237L37.214,44.556   z"></path></g></svg>