<svg height='200' width='200'  fill="#000000" xmlns="http://www.w3.org/2000/svg" xmlns:xlink="http://www.w3.org/1999/xlink" version="1.1" x="0px" y="0px" viewBox="0 0 512 512" enable-background="new 0 0 512 512" xml:space="preserve"><g><path d="M202.4,220.7c3.9,1.3,7.2,1.2,10.2,0c66-25.7,99.4-48.6,99.4-68c0-21.4-26.6-36.9-63.3-36.9c-15.6,0-30.1,2.9-41.2,8.2   c-11.1-5.3-25.6-8.2-41.2-8.2c-36.7,0-63.3,15.5-63.3,36.9C102.9,172.5,136.4,195.4,202.4,220.7z M166.3,144c16.3,0,28,4.2,33,7.7   c4.9,3.4,11.4,3.4,16.3,0l0,0c5.1-3.6,16.7-7.7,33-7.7c18.3,0,30,5.1,34,8.4c-8.3,8.8-40.8,26.2-75.2,40   c-34.6-13.7-67.2-31.1-75.2-39.9C136.1,149.1,147.9,144,166.3,144z"></path><path d="M447.4,154.6c-12.6,0-24.5,3.6-34.6,9.7c-4.4-55.5-93-98.3-205.3-98.3C92.3,66,2,111.1,2,168.7C2,321.6,94.2,446,207.5,446   c47.3,0,90.8-21.7,125.6-58.1c60.5-1.7,101.1-29.7,124.7-53.4c32.8-32.8,52.3-76.7,52.2-117.4C509.9,182.7,481.8,154.6,447.4,154.6   z M207.5,94.2c104.5,0,177.2,39.3,177.2,74.5s-72.8,74.5-177.2,74.5S30.2,203.9,30.2,168.7S103,94.2,207.5,94.2z M207.5,417.8   c-83.9,0-154.4-82.4-172.6-192.7c36.3,28.1,99.4,46.3,172.6,46.3s136.3-18.2,172.6-46.3C361.8,335.4,291.4,417.8,207.5,417.8z    M437.8,314.7c-16.4,16.4-42.5,35.3-79.6,42.3c27.2-39.6,45.9-89.8,52.3-145.6c3-15.7,18.9-28.6,36.9-28.6   c18.9,0,34.4,15.4,34.4,34.4C481.8,250.1,465,287.4,437.8,314.7z"></path></g></svg>