<svg height='200' width='200'  fill="#000000" xmlns="http://www.w3.org/2000/svg" xmlns:xlink="http://www.w3.org/1999/xlink" version="1.1" x="0px" y="0px" viewBox="0 0 100 100" enable-background="new 0 0 100 100" xml:space="preserve"><path fill="#000000" d="M80.428,41.684c-1.488-1.738-3.622-2.774-5.901-2.877c0.245-2.241-0.433-4.526-1.928-6.273  c-1.571-1.837-3.86-2.891-6.281-2.891c-1.967,0-3.873,0.704-5.368,1.984c-3.368,2.882-3.843,7.908-1.134,11.369L40.054,59.903  c-1.561-1.671-3.742-2.622-6.042-2.622c-1.966,0-3.872,0.704-5.367,1.983c-1.677,1.435-2.694,3.436-2.864,5.637  c-0.172,2.2,0.524,4.335,1.959,6.01c1.486,1.739,3.619,2.775,5.899,2.878c-0.245,2.243,0.434,4.527,1.929,6.274  c1.571,1.837,3.86,2.891,6.279,2.891c1.966,0,3.871-0.705,5.366-1.984c1.677-1.435,2.695-3.436,2.866-5.636  c0.159-2.035-0.425-4.015-1.647-5.626l19.772-16.916c1.553,1.61,3.694,2.524,5.948,2.524c1.966,0,3.871-0.704,5.364-1.983  c1.679-1.434,2.697-3.436,2.869-5.637C82.558,45.497,81.863,43.361,80.428,41.684z M77.811,51.337  c-1.02,0.873-2.318,1.354-3.658,1.354c-1.651,0-3.214-0.719-4.287-1.972c-0.146-0.173-0.276-0.353-0.4-0.536  c-0.209-0.31-0.541-0.517-0.912-0.567c-0.372-0.049-0.745,0.061-1.029,0.304L45.7,68.591c-0.285,0.244-0.452,0.598-0.46,0.974  c-0.006,0.375,0.148,0.735,0.425,0.989c0.16,0.147,0.316,0.304,0.462,0.475c0.979,1.144,1.453,2.6,1.336,4.101  c-0.116,1.501-0.812,2.866-1.956,3.846c-1.02,0.873-2.318,1.354-3.659,1.354c-1.651,0-3.213-0.719-4.284-1.973  c-1.307-1.524-1.698-3.652-1.023-5.552c0.156-0.442,0.065-0.935-0.24-1.292c-0.252-0.294-0.617-0.459-0.997-0.459  c-0.08,0-0.161,0.007-0.241,0.022c-1.964,0.368-4.031-0.354-5.326-1.871c-0.979-1.144-1.454-2.6-1.337-4.101  c0.116-1.501,0.811-2.867,1.953-3.846c1.021-0.872,2.32-1.353,3.661-1.353c1.651,0,3.215,0.719,4.284,1.969  c0.172,0.201,0.32,0.415,0.46,0.633c0.206,0.318,0.539,0.532,0.914,0.587c0.373,0.054,0.755-0.055,1.043-0.301l21.854-18.698  c0.288-0.246,0.456-0.604,0.46-0.982c0.004-0.379-0.156-0.741-0.438-0.993c-0.193-0.173-0.38-0.352-0.551-0.552  c-2.02-2.361-1.742-5.926,0.618-7.946c1.02-0.872,2.32-1.354,3.661-1.354c1.652,0,3.215,0.719,4.287,1.972  c1.305,1.525,1.696,3.653,1.021,5.552c-0.157,0.443-0.066,0.936,0.239,1.293c0.305,0.356,0.773,0.525,1.239,0.437  c1.961-0.37,4.032,0.354,5.328,1.869c0.979,1.145,1.453,2.601,1.336,4.102C79.652,48.994,78.957,50.359,77.811,51.337z   M29.858,45.052c0.601,0.077,1.209,0.116,1.811,0.116c3.233,0,6.393-1.135,8.896-3.196h0.002c0.001-0.001,0.001-0.001,0.002-0.002  h0.001c0.001-0.001,0.001-0.002,0.002-0.002c2.779-2.276,4.562-5.497,5.022-9.07c0.459-3.575-0.454-7.145-2.571-10.05  c-0.001-0.001-0.002-0.001-0.003-0.002c-2.261-3.122-5.752-5.193-9.579-5.685c-3.829-0.49-7.735,0.635-10.705,3.078  c-0.001,0.001-0.003,0.001-0.004,0.002c-2.784,2.278-4.569,5.5-5.027,9.073c-0.46,3.571,0.452,7.14,2.567,10.045  c0,0.001,0,0.002,0.001,0.002c0,0.001,0.001,0.002,0.001,0.002c0.001,0.001,0.001,0.002,0.002,0.002  c0,0.001,0.001,0.002,0.002,0.003C22.539,42.489,26.03,44.56,29.858,45.052z M42.991,32.563c-0.322,2.507-1.449,4.796-3.201,6.566  c-1.789-2.064-2.614-4.656-2.279-7.27c0.337-2.612,1.79-4.911,4.042-6.457C42.8,27.558,43.313,30.058,42.991,32.563z M33.107,19.765  c2.683,0.345,5.082,1.58,6.887,3.522c-2.829,1.967-4.656,4.897-5.087,8.238c-0.428,3.34,0.599,6.637,2.838,9.254  c-2.225,1.406-4.909,2.01-7.552,1.669c-2.683-0.345-5.082-1.58-6.887-3.521c2.828-1.962,4.654-4.894,5.084-8.239  s-0.596-6.642-2.834-9.255C27.781,20.029,30.464,19.429,33.107,19.765z M20.308,29.649c0.321-2.505,1.448-4.795,3.202-6.565  c1.789,2.061,2.612,4.652,2.276,7.271c-0.337,2.618-1.789,4.919-4.04,6.459C20.497,34.657,19.985,32.157,20.308,29.649z"></path></svg>