<svg height='200' width='200'  fill="#000000" xmlns="http://www.w3.org/2000/svg" xmlns:xlink="http://www.w3.org/1999/xlink" version="1.1" x="0px" y="0px" viewBox="0 0 100 100" style="enable-background:new 0 0 100 100;" xml:space="preserve"><style type="text/css">
	.st0{fill:none;stroke:#000000;stroke-linecap:round;stroke-linejoin:round;stroke-miterlimit:10;}
	.st1{fill:none;stroke:#000000;stroke-miterlimit:10;}
</style><g><path d="M45.1,36.9c0.2-0.4,0-0.8-0.4-1c-0.4-0.2-0.8,0-1,0.4L29,70c0,0-0.5,1.2-1.6,1.7c-0.8,0.3-1.7,0.2-2.7-0.2   c-0.7-0.3-1.1-0.8-1.1-1.6c0-2.3,2.9-6.3,5.7-7.6c0.2-0.1,0.3-0.2,0.4-0.4l1.9-4.4c0.1-0.3,0-0.7-0.2-0.9c0,0-1.9-1.4-1.3-2.5   c0.4-0.5,1-0.6,2.1-0.7c0.9,0,2-0.1,2.4-1.1c0.4-0.8-0.1-1.7-0.5-2.8c-0.5-1.1-1-2.3-0.6-3.1c0.4-0.8,1.2-1.2,2-1.6   c0.9-0.5,1.8-0.9,2.3-1.9l3.8-8.7c0.2-0.4,0-0.8-0.4-1s-0.8,0-1,0.4l-3.8,8.7c-0.2,0.5-0.9,0.8-1.6,1.2c-1,0.5-2.1,1.1-2.7,2.4   c-0.6,1.4,0.1,3,0.6,4.3c0.2,0.5,0.6,1.4,0.5,1.7c-0.1,0.1-0.8,0.2-1.1,0.2c-1,0-2.4,0.1-3.2,1.3c-1,1.5,0.1,3.1,1.2,4.1l-1.6,3.6   c-2.9,1.5-6.3,5.7-6.3,8.8c0,1.3,0.7,2.4,1.9,2.9c1.4,0.6,2.7,0.7,3.9,0.2c1.7-0.7,2.4-2.5,2.4-2.5L45.1,36.9z"></path><path d="M63.5,55l5.4-7.8l-1.2-0.8l-5.4,7.8c-0.6,0.9-0.5,1.9-0.4,2.9c0.1,1,0.2,1.9-0.3,2.6c-0.5,0.7-1.8,0.9-3,1.1   c-1.2,0.2-2.2,0.3-2.7,1c-0.6,0.9-0.1,1.8,0.4,2.6c0.5,0.9,0.8,1.5,0.5,2.1c-0.5,1.1-2.7,0.2-2.8,0.2c-0.3-0.1-0.7,0-0.9,0.3   l-2.7,3.9c-0.1,0.1-0.1,0.3-0.1,0.5c0.3,3-1.5,7.6-3.5,8.8c-0.7,0.4-1.3,0.4-1.9-0.1c-0.9-0.7-1.5-1.4-1.6-2.2   c-0.2-1.2,0.6-2.3,0.6-2.3l21-30.1c0.2-0.3,0.2-0.8-0.2-1c-0.3-0.2-0.8-0.2-1,0.2l-21,30.1c0,0.1-1.2,1.5-0.9,3.4   c0.2,1.2,0.9,2.3,2.2,3.2c0.2,0.1,0.4,0.3,0.6,0.4c0.9,0.4,1.9,0.3,2.9-0.2c2.7-1.6,4.4-6.6,4.2-9.9l2.3-3.2   c1.4,0.4,3.3,0.5,4.1-1.1c0.6-1.3-0.1-2.5-0.5-3.4c-0.2-0.3-0.5-1-0.4-1.1c0.1-0.2,1.1-0.3,1.7-0.4c1.4-0.2,3.1-0.4,3.9-1.7   c0.8-1.2,0.7-2.4,0.6-3.5C63.2,56.2,63.2,55.5,63.5,55z"></path><path d="M63.2,18.3c-0.5-1.1-1.5-2-2.9-2.6c-1.3-0.5-2.5-0.2-3.4,0.7c-2.2,2.2-2.7,7.5-1.6,10.7l-1.4,3.7c-1.4-0.1-3.3,0.3-3.7,2.1   c-0.3,1.4,0.7,2.4,1.4,3.2c0.2,0.2,0.7,0.8,0.7,0.9c-0.1,0.2-1,0.6-1.5,0.8c-1.3,0.5-2.9,1.2-3.4,2.6c-0.5,1.3-0.1,2.5,0.3,3.6   c0.3,0.8,0.5,1.4,0.3,2L44.5,55l1.4,0.5l3.4-8.9c0.4-1,0-2-0.3-3c-0.3-0.9-0.6-1.8-0.3-2.6c0.3-0.8,1.5-1.3,2.6-1.8   c1.1-0.5,2-0.8,2.4-1.7c0.4-1-0.4-1.8-1-2.4c-0.7-0.7-1.1-1.3-1-1.9c0.2-1.2,2.6-0.9,2.6-0.9c0.3,0,0.7-0.1,0.8-0.5l1.7-4.4   c0.1-0.2,0.1-0.3,0-0.5c-1.1-2.9-0.4-7.8,1.2-9.4c0.6-0.6,1.2-0.7,1.9-0.4c1.1,0.4,1.8,1,2.1,1.7c0.5,1.1,0,2.4,0,2.4l-13,34.4   c-0.1,0.4,0.1,0.8,0.4,0.9c0.4,0.1,0.8,0,0.9-0.4l13-34.4C63.2,21.8,63.9,20.1,63.2,18.3z"></path></g></svg>