<svg height='200' width='200'  fill="#000000" xmlns="http://www.w3.org/2000/svg" xmlns:xlink="http://www.w3.org/1999/xlink" version="1.1" x="0px" y="0px" viewBox="0 0 56 64" style="enable-background:new 0 0 56 64;" xml:space="preserve"><g><path style="" d="   M32.558,18.744c0.842-1.141,0.842-1.711,0.842-1.711s-2.16-1.069-3.24-1.069c0-3.207-2.16-4.276-2.16-4.276s-2.16,1.069-2.16,4.276   c-1.08,0-3.24,1.069-3.24,1.069s0,0.57,0.842,1.711c0.482,0.654,0.174,1.557-0.602,1.813c-0.48,0.158-0.96,0.396-1.32,0.752   c0,0,0,3.207,5.4,4.276H28h1.08c5.4-1.069,5.4-4.276,5.4-4.276c-0.36-0.356-0.84-0.594-1.32-0.752   C32.384,20.301,32.076,19.398,32.558,18.744z" fill="none" stroke="#000000" stroke-width="2" stroke-linecap="round" stroke-linejoin="round" stroke-miterlimit="10"></path><path style="" d="M25.84,53.847   c0.884,0.898,1.813,1.621,2.7,2.298c0.887-0.677,1.816-1.4,2.7-2.298c1.337-1.358,2.563-3.121,3.365-5.73   c-2.195-2.344-3.365-4.934-3.365-7.575l-1.08-14.957h-3.24l-1.08,14.957c0,2.64-1.17,5.23-3.365,7.575   C23.277,50.726,24.503,52.489,25.84,53.847z" fill="none" stroke="#000000" stroke-width="2" stroke-linejoin="round" stroke-miterlimit="10"></path><path style="" d="   M22.84,9.868c-0.48,0.158-0.96,0.396-1.32,0.752c0,0,0.001,2.823,4.462,4.055C26.451,12.475,28,11.689,28,11.689   s1.549,0.786,2.018,2.986c4.462-1.231,4.462-4.055,4.462-4.055c-0.36-0.356-0.84-0.594-1.32-0.752   c-0.776-0.256-1.084-1.159-0.602-1.813C33.4,6.915,33.4,6.344,33.4,6.344s-2.16-1.069-3.24-1.069C30.16,2.069,28,1,28,1   s-2.16,1.069-2.16,4.276c-1.08,0-3.24,1.069-3.24,1.069s0,0.57,0.842,1.711C23.924,8.709,23.616,9.612,22.84,9.868z" fill="none" stroke="#000000" stroke-width="2" stroke-linecap="round" stroke-linejoin="round" stroke-miterlimit="10"></path><path style="" d="   M40.72,15.212c-0.776-0.256-1.084-1.159-0.602-1.813c0.842-1.141,0.842-1.711,0.842-1.711s-2.16-1.069-3.24-1.069   c0-3.207-2.16-4.276-2.16-4.276s-1.843,0.947-2.107,3.649c0.376,0.153,0.742,0.344,1.027,0.627c0,0-0.012,2.284-3.266,3.639   c-0.064,0.42-0.354,0.801-0.814,0.953c-0.1,0.033-0.194,0.085-0.293,0.125c0.02,0.206,0.053,0.399,0.053,0.627   c1.08,0,3.24,1.069,3.24,1.069s0,0.57-0.842,1.711c-0.196,0.265-0.256,0.571-0.213,0.858c0.599,0.249,1.295,0.471,2.134,0.637h1.08   h1.08c5.4-1.069,5.4-4.276,5.4-4.276C41.68,15.608,41.2,15.371,40.72,15.212z" fill="none" stroke="#000000" stroke-width="2" stroke-linecap="round" stroke-linejoin="round" stroke-miterlimit="10"></path><g><path style="" d="    M24.786,14.259c-3.254-1.355-3.266-3.639-3.266-3.639c0.285-0.282,0.651-0.474,1.027-0.627c-0.264-2.702-2.107-3.649-2.107-3.649    s-2.16,1.069-2.16,4.276c-1.08,0-3.24,1.069-3.24,1.069s0,0.57,0.842,1.711c0.483,0.654,0.174,1.557-0.602,1.813    c-0.48,0.158-0.96,0.396-1.32,0.752c0,0,0,3.207,5.4,4.276h1.08h1.08c0.839-0.166,1.535-0.388,2.133-0.637    c0.046-0.287-0.015-0.593-0.211-0.859C22.6,17.604,22.6,17.033,22.6,17.033s2.16-1.069,3.24-1.069c0-0.228,0.032-0.42,0.053-0.627    c-0.099-0.04-0.193-0.093-0.293-0.125C25.14,15.06,24.85,14.68,24.786,14.259z" fill="none" stroke="#000000" stroke-width="2" stroke-linecap="round" stroke-linejoin="round" stroke-miterlimit="10"></path></g><path style="" d="   M2.94,28.54c-1.41-0.217-1.818-0.621-1.818-0.621s0.764-2.267,1.527-3.023c-2.291-2.267-1.527-4.535-1.527-4.535   s2.291-0.756,4.582,1.512c0.764-0.756,3.055-1.512,3.055-1.512s0.407,0.403,0.627,1.799c0.126,0.8,0.989,1.222,1.72,0.861   c0.453-0.224,0.962-0.392,1.471-0.392c0,0,2.291,2.267-0.764,6.802l-0.764,0.756l-0.764,0.756   c-4.582,3.023-6.873,0.756-6.873,0.756c0-0.504,0.17-1.008,0.396-1.456C4.175,29.519,3.748,28.665,2.94,28.54z" fill="none" stroke="#000000" stroke-width="2" stroke-linecap="round" stroke-linejoin="round" stroke-miterlimit="10"></path><path style="" d="   M53.06,28.54c1.41-0.217,1.818-0.621,1.818-0.621s-0.764-2.267-1.527-3.023c2.291-2.267,1.527-4.535,1.527-4.535   s-2.291-0.756-4.582,1.512c-0.764-0.756-3.055-1.512-3.055-1.512s-0.407,0.403-0.627,1.799c-0.126,0.8-0.989,1.222-1.72,0.861   c-0.453-0.224-0.962-0.392-1.471-0.392c0,0-2.291,2.267,0.764,6.802l0.764,0.756l0.764,0.756c4.582,3.023,6.873,0.756,6.873,0.756   c0-0.504-0.17-1.008-0.396-1.456C51.825,29.519,52.252,28.665,53.06,28.54z" fill="none" stroke="#000000" stroke-width="2" stroke-linecap="round" stroke-linejoin="round" stroke-miterlimit="10"></path><path style="" d="   M43.423,22.628c0.509,0,1.018,0.168,1.471,0.392c0.731,0.362,1.595-0.061,1.72-0.861c0.22-1.396,0.627-1.799,0.627-1.799   s1.385,0.461,2.361,1.021c1.07-1.121,1.078-2.211,1.078-2.211c-0.36-0.356-0.84-0.594-1.32-0.752   c-0.776-0.256-1.084-1.159-0.602-1.813c0.842-1.141,0.842-1.711,0.842-1.711s-2.16-1.069-3.24-1.069c0-3.207-2.16-4.276-2.16-4.276   s-2.16,1.069-2.16,4.276c-0.563,0-1.415,0.29-2.105,0.568c0.101,0.365,0.375,0.683,0.785,0.818c0.48,0.158,0.96,0.396,1.32,0.752   c0,0-0.013,2.686-4.163,3.96c0.346,0.997,1.473,2.714,5.061,3.477C43.165,22.89,43.423,22.628,43.423,22.628z" fill="none" stroke="#000000" stroke-width="2" stroke-linecap="round" stroke-linejoin="round" stroke-miterlimit="10"></path><path style="" d="   M13.96,15.965c0.36-0.356,0.84-0.594,1.32-0.752c0.411-0.135,0.685-0.453,0.786-0.818c-0.691-0.278-1.543-0.568-2.106-0.568   c0-3.207-2.16-4.276-2.16-4.276s-2.16,1.069-2.16,4.276c-1.08,0-3.24,1.069-3.24,1.069s0,0.57,0.842,1.711   c0.483,0.654,0.174,1.557-0.602,1.813c-0.48,0.158-0.96,0.396-1.32,0.752c0,0,0.008,1.09,1.078,2.211   c0.976-0.56,2.361-1.021,2.361-1.021s0.408,0.403,0.627,1.799c0.126,0.8,0.989,1.222,1.72,0.861   c0.452-0.224,0.962-0.392,1.471-0.392c0,0,0.257,0.262,0.485,0.773c3.587-0.763,4.714-2.48,5.061-3.477   C13.973,18.65,13.96,15.965,13.96,15.965z" fill="none" stroke="#000000" stroke-width="2" stroke-linecap="round" stroke-linejoin="round" stroke-miterlimit="10"></path><path style="" d="M34.653,60.179   c-0.222-0.094-0.459-0.202-0.707-0.321c-0.023-0.011-0.045-0.021-0.068-0.032c-0.264-0.128-0.541-0.271-0.828-0.43   c-0.016-0.009-0.032-0.018-0.048-0.027c-0.279-0.155-0.568-0.326-0.863-0.512c-0.019-0.012-0.038-0.023-0.057-0.035   c-0.275-0.175-0.558-0.37-0.842-0.574c-0.369-0.264-0.741-0.546-1.118-0.862c-0.005-0.004-0.01-0.008-0.016-0.013   c-0.49-0.412-1.021-0.813-1.566-1.229c-0.887-0.677-1.816-1.4-2.7-2.298c-2.324-2.36-4.32-5.931-4.32-13.082   c0-0.014,0-0.028,0-0.042c-0.005-3.202-0.265-6.399-0.655-9.578L19.528,20.24H19.36c-0.454-0.09-0.857-0.199-1.238-0.316l0.001,0   c-0.218,0.627-0.748,1.539-2.003,2.32l0,28.946c0,0.95,0.062,1.906,0.292,2.828c0.698,2.801,2.424,5.15,4.748,6.746   c1.942,1.334,4.3,2.143,6.84,2.232c0.181,0.006,0.36,0.003,0.54,0.004c0.18-0.001,0.359,0.002,0.54-0.004   c2.54-0.089,4.898-0.898,6.84-2.232c-0.296-0.139-1.035-0.487-1.225-0.567C34.681,60.191,34.667,60.184,34.653,60.179z" fill="none" stroke="#000000" stroke-width="2" stroke-linejoin="round" stroke-miterlimit="10"></path><path style="" d="M37.877,19.924   L37.877,19.924c-0.088,0.027-0.167,0.057-0.26,0.083L36.225,31.16c-0.396,3.173-0.66,6.365-0.665,9.562c0,0.014,0,0.028,0,0.042   c0,7.152-1.996,10.722-4.32,13.082c-0.884,0.898-1.813,1.621-2.7,2.298c0.545,0.416,1.076,0.817,1.566,1.229   c0.005,0.004,0.01,0.008,0.016,0.013c0.377,0.316,0.75,0.598,1.118,0.862c0.285,0.204,0.567,0.399,0.842,0.574   c0.019,0.012,0.038,0.023,0.057,0.035c0.295,0.186,0.584,0.357,0.863,0.512c0.016,0.009,0.032,0.019,0.048,0.027   c0.287,0.159,0.564,0.301,0.828,0.43c0.023,0.011,0.045,0.021,0.068,0.032c0.248,0.119,0.485,0.226,0.707,0.321   c0.014,0.006,0.028,0.013,0.042,0.018c0.19,0.08,0.929,0.428,1.225,0.567c2.324-1.596,4.05-3.945,4.748-6.746   c0.23-0.922,0.292-1.878,0.292-2.828l0-28.406C38.92,21.924,38.149,20.706,37.877,19.924z" fill="none" stroke="#000000" stroke-width="2" stroke-linejoin="round" stroke-miterlimit="10"></path><g><path style="" d="M16.12,22.244    c-0.739,0.46-1.728,0.874-3.058,1.157c0.45,1.011,0.781,3.017-1.248,6.03l-0.576,0.57l4.882,4.349V22.244z" fill="none" stroke="#000000" stroke-width="2" stroke-linejoin="round" stroke-miterlimit="10"></path><path style="" d="M24.73,24.924    c-3.197-1.358-3.21-3.615-3.21-3.615c0.36-0.356,0.84-0.594,1.32-0.752c0.461-0.152,0.751-0.532,0.812-0.953    c-0.599,0.249-1.294,0.471-2.132,0.637h-1.08h-0.912l1.395,11.382L24.73,24.924z" fill="none" stroke="#000000" stroke-width="2" stroke-linejoin="round" stroke-miterlimit="10"></path></g><g><path style="" d="M40.96,22.784V34.35    l4.314-3.842l-0.324-0.32l-0.764-0.756c-2.029-3.013-1.699-5.019-1.248-6.03C42.163,23.236,41.522,23.021,40.96,22.784z" fill="none" stroke="#000000" stroke-width="2" stroke-linejoin="round" stroke-miterlimit="10"></path><path style="" d="M32.115,24.512l4.05,7.126    l1.452-11.63c0.093-0.026,0.172-0.056,0.261-0.084c-0.381,0.117-0.784,0.226-1.238,0.316h-1.08h-1.08    c-0.839-0.166-1.534-0.388-2.132-0.637c0.061,0.421,0.351,0.801,0.812,0.953c0.48,0.158,0.96,0.396,1.32,0.752    C34.48,21.309,34.474,23.154,32.115,24.512z" fill="none" stroke="#000000" stroke-width="2" stroke-linejoin="round" stroke-miterlimit="10"></path></g><path style="" d="   M27.969,59.785c-1.798-0.09-3.513-0.661-4.964-1.657c-1.727-1.187-2.949-2.909-3.44-4.85c-0.139-0.551-0.205-1.217-0.205-2.092   v-2.181" fill="none" stroke="#000000" stroke-width="2" stroke-linecap="round" stroke-linejoin="round" stroke-miterlimit="10"></path></g></svg>