<svg height='200' width='200'  fill="#000000" xmlns="http://www.w3.org/2000/svg" xmlns:xlink="http://www.w3.org/1999/xlink" version="1.1" x="0px" y="0px" viewBox="0 0 100 100" style="enable-background:new 0 0 100 100;" xml:space="preserve"><g><path d="M38,37c-1.6,0.3-2.9,1.2-3.7,2.7c-0.2,0.5-0.1,1.1,0.4,1.3c0.1,0.1,0.3,0.1,0.5,0.1c0.4,0,0.7-0.2,0.9-0.5   c0.5-0.9,1.2-1.4,2.2-1.6c0.5-0.1,0.9-0.6,0.8-1.2C39.1,37.2,38.6,36.9,38,37z"></path><path d="M83.4,45.3h-6.5c-0.5-3.3-3.3-5.9-6.8-5.9c-0.3,0-0.6-0.2-0.6-0.4c-0.7-3.1-3.4-5.4-6.6-5.4c0.1-3.9-1.9-6.9-5.8-8.8   c-0.9-0.4-1.9-0.3-2.7,0.3c-0.8,0.6-1.2,1.6-1,2.6c0.2,1,0,1.9-0.5,2.9c-1,1.9-3.1,3-5.4,3H37.2c-3.2,0-6.1,2.3-6.7,5.4   c-0.1,0.3-0.3,0.4-0.6,0.4c-3.5,0-6.3,2.6-6.8,5.9h-6.5c-2.4,0-4.4,2-4.4,4.4c0,17.9,12.4,26.6,37.8,26.6s37.8-8.7,37.8-26.6   C87.8,47.3,85.8,45.3,83.4,45.3z M29.9,41.5c1.2,0,2.3-0.9,2.6-2c0.5-2.2,2.5-3.9,4.8-3.9h10.2c3,0,5.8-1.6,7.2-4.1   c0.7-1.3,1-2.7,0.7-4.1c-0.1-0.4,0.2-0.6,0.3-0.6c0.1-0.1,0.4-0.2,0.7-0.1c3.5,1.6,5,4.2,4.5,7.8c0,0.3,0.1,0.6,0.2,0.8   c0.2,0.2,0.5,0.3,0.8,0.3h0.9c2.3,0,4.3,1.6,4.8,3.8c0.2,1.2,1.3,2,2.6,2c2.3,0,4.3,1.7,4.8,3.9H25.1   C25.6,43.1,27.6,41.5,29.9,41.5z M16.6,47.3h66.8c1.3,0,2.4,1.1,2.4,2.4c0,0.3,0,0.6,0,0.9H14.2c0-0.3,0-0.6,0-0.9   C14.2,48.4,15.3,47.3,16.6,47.3z M50,74.3c-23,0-34.4-6.9-35.7-21.7h71.4C84.4,67.4,73,74.3,50,74.3z"></path></g></svg>