<svg height='200' width='200'  fill="#000000" xmlns="http://www.w3.org/2000/svg" xmlns:xlink="http://www.w3.org/1999/xlink" version="1.1" x="0px" y="0px" viewBox="0 0 100 100" enable-background="new 0 0 100 100" xml:space="preserve"><g><path d="M33.893,90.974c1.578,0.789,3.25,1.189,4.971,1.188c3.072,0,5.237-1.282,5.328-1.336l0.447-0.269l0.035-0.521   c0-0.001,0.076-1.133,0.205-2.916c0.229-0.229,0.281-0.498,0.292-0.64c0.282-3.864,0.84-11.096,1.409-16.118   c0.266-2.347,0.536-5.244,0.849-8.599c0.616-6.602,1.379-14.785,2.573-23.861c1.193,9.076,1.957,17.26,2.573,23.861   c0.313,3.355,0.583,6.252,0.849,8.599c0.568,5.021,1.127,12.254,1.409,16.12c0.01,0.139,0.062,0.404,0.291,0.633   c0.129,1.787,0.205,2.919,0.205,2.92l0.035,0.521l0.447,0.27c0.09,0.054,2.256,1.336,5.328,1.336c1.721,0,3.393-0.4,4.971-1.188   l0.553-0.276v-3.65c0.219-0.199,0.422-0.442,0.422-0.838V82.5c0-1.575,0.101-3.479,0.241-6.115   c0.302-5.701,0.759-14.317,0.759-29.635c0-22.314-2.071-36.751-2.092-36.895l-0.075-0.517l-0.467-0.233   C65.234,8.999,60.12,6.5,50,6.5S34.766,8.999,34.553,9.105l-0.467,0.233l-0.075,0.517c-0.021,0.143-2.092,14.58-2.092,36.895   c0,15.318,0.457,23.934,0.759,29.635c0.14,2.636,0.241,4.54,0.241,6.115v3.709c0,0.396,0.203,0.64,0.422,0.838v3.65L33.893,90.974z    M38.864,90.162c-1.209,0-2.392-0.243-3.523-0.722v-1.404c1.185,0.351,2.336,0.488,3.398,0.488c1.65,0,3.071-0.319,4.08-0.631   c-0.043,0.602-0.078,1.102-0.101,1.444C42.042,89.645,40.643,90.162,38.864,90.162z M54.564,61.578   c-0.63-6.755-1.414-15.162-2.656-24.502c-0.165-1.239-0.456-1.928-1.153-2.731L50,33.474l-0.755,0.871   c-0.697,0.803-0.988,1.493-1.153,2.732c-1.242,9.339-2.026,17.747-2.656,24.501c-0.312,3.344-0.582,6.232-0.845,8.56   c-0.518,4.569-1.019,10.809-1.364,15.483c-0.952,0.402-4.584,1.704-8.309,0.135V82.5c0-1.628-0.102-3.555-0.244-6.221   c-0.301-5.68-0.756-14.264-0.756-29.529c0-13.479,0.759-24.05,1.358-30.297c1.934,0.678,5.664,1.696,11.224,2.016V27.5h2v-8.953   c0.491,0.012,0.984,0.023,1.5,0.023s1.009-0.011,1.5-0.023V25h2v-6.531c5.56-0.319,9.29-1.337,11.224-2.016   c0.599,6.247,1.358,16.818,1.358,30.297c0,15.265-0.455,23.849-0.756,29.529c-0.142,2.667-0.244,4.593-0.244,6.221v3.256   c-3.706,1.558-7.355,0.263-8.31-0.136c-0.345-4.677-0.846-10.914-1.363-15.482C55.146,67.811,54.876,64.922,54.564,61.578z    M50,13.5c7.375,0,12.078-1.324,14.177-2.085c0.088,0.709,0.206,1.712,0.34,2.981c-1.57,0.588-5.253,1.722-11.017,2.07V15h-2v1.547   c-0.49,0.012-0.984,0.023-1.5,0.023s-1.01-0.011-1.5-0.023V15h-2v1.466c-5.763-0.348-9.446-1.482-11.017-2.07   c0.134-1.269,0.251-2.272,0.34-2.981C37.922,12.176,42.625,13.5,50,13.5z M61.136,90.162c-1.763,0-3.173-0.521-3.854-0.829   c-0.023-0.342-0.059-0.841-0.101-1.441c1.008,0.313,2.429,0.631,4.08,0.631c1.062,0,2.213-0.137,3.398-0.488v1.405   C63.528,89.919,62.345,90.162,61.136,90.162z M62.021,10C59.655,10.68,55.645,11.5,50,11.5s-9.655-0.82-12.021-1.5   c2.367-0.68,6.38-1.5,12.021-1.5C55.642,8.5,59.655,9.319,62.021,10z"></path></g></svg>